<svg width="28" height="28" viewBox="0 0 28 28" fill="none" xmlns="http://www.w3.org/2000/svg">
<path fill-rule="evenodd" clip-rule="evenodd" d="M14 1.45837C10.9394 1.45837 8.45834 3.93946 8.45834 7.00004C8.45834 10.0606 10.9394 12.5417 14 12.5417C17.0606 12.5417 19.5417 10.0606 19.5417 7.00004C19.5417 3.93946 17.0606 1.45837 14 1.45837ZM10.2083 7.00004C10.2083 4.90596 11.9059 3.20837 14 3.20837C16.0941 3.20837 17.7917 4.90596 17.7917 7.00004C17.7917 9.09412 16.0941 10.7917 14 10.7917C11.9059 10.7917 10.2083 9.09412 10.2083 7.00004Z" fill="#808080"/>
<path fill-rule="evenodd" clip-rule="evenodd" d="M10.5 14.2917C7.43943 14.2917 4.95834 16.7728 4.95834 19.8334C4.95834 22.894 7.43943 25.375 10.5 25.375H17.5C20.5606 25.375 23.0417 22.894 23.0417 19.8334C23.0417 16.7728 20.5606 14.2917 17.5 14.2917H10.5ZM6.70834 19.8334C6.70834 17.7393 8.40593 16.0417 10.5 16.0417H17.5C19.5941 16.0417 21.2917 17.7393 21.2917 19.8334C21.2917 21.9275 19.5941 23.625 17.5 23.625H10.5C8.40593 23.625 6.70834 21.9275 6.70834 19.8334Z" fill="#808080"/>
</svg>
