<svg width="28" height="28" viewBox="0 0 28 28" fill="none" xmlns="http://www.w3.org/2000/svg">
<path d="M23.6251 8.44298C25.111 11.0167 25.8539 12.3035 25.9238 13.7107C25.9334 13.9034 25.9334 14.0965 25.9238 14.2892C25.8539 15.6965 25.111 16.9833 23.6251 19.557C22.1391 22.1307 21.3962 23.4175 20.2124 24.1816C20.0503 24.2863 19.8831 24.3828 19.7114 24.4709C18.4578 25.114 16.9719 25.114 14.0001 25.114C11.0282 25.114 9.54232 25.114 8.2887 24.4709C8.11702 24.3828 7.94981 24.2863 7.78769 24.1816C6.60394 23.4175 5.86098 22.1307 4.37507 19.557C2.88915 16.9833 2.1462 15.6965 2.07633 14.2892C2.06676 14.0965 2.06676 13.9034 2.07633 13.7107C2.1462 12.3035 2.88915 11.0167 4.37507 8.44298C5.86098 5.8693 6.60394 4.58247 7.78769 3.81835C7.94981 3.7137 8.11702 3.61716 8.2887 3.52909C9.54232 2.88599 11.0282 2.88599 14.0001 2.88599C16.9719 2.88599 18.4578 2.88599 19.7114 3.52909C19.8831 3.61716 20.0503 3.7137 20.2124 3.81835C21.3962 4.58247 22.1392 5.86931 23.6251 8.44298Z" stroke="#808080" stroke-width="1.5"/>
<path d="M11.6854 12.9545C11.9224 12.3792 12.3793 11.9223 12.9546 11.6854L16.0776 10.3994C17.0366 10.0046 17.9955 10.9635 17.6006 11.9224L16.3147 15.0454C16.0778 15.6208 15.6209 16.0777 15.0455 16.3146L11.9225 17.6006C10.9636 17.9954 10.0046 17.0365 10.3995 16.0775L11.6854 12.9545Z" stroke="#808080" stroke-width="1.5"/>
</svg>
